<?xml version="1.0" encoding="utf-8"?>
<svg viewBox="0 0 3888 996" width="3888px" height="996px" version="1.1" style="shape-rendering:geometricPrecision; text-rendering:geometricPrecision; image-rendering:optimizeQuality; fill-rule:evenodd; clip-rule:evenodd" xmlns="http://www.w3.org/2000/svg">
  <defs>
    <style type="text/css">
      .fil0 {fill:#0F6DB8;fill-rule:nonzero}
      .fil1 {fill:#EB5723;fill-rule:nonzero}
    </style>
  </defs>
  <g id="Camada_x0020_1" transform="matrix(0.257759, 0, 0, 0.257759, -770.763916, -2453.358643)">
    <path class="fil0" d="M3038.82 13338.92l0 -566.66 2093.95 0c237.45,0 356.18,-136.72 356.18,-410.16 0,-208.67 -122.33,-350.78 -366.98,-426.34l-1489.5 -469.51c-237.46,-75.56 -403.86,-191.59 -499.2,-348.09 -95.35,-156.51 -143.02,-371.48 -143.02,-644.91 0,-280.63 71.95,-502.79 215.87,-666.5 143.92,-163.7 359.79,-245.55 647.62,-245.55l2174.88 0 0 566.66 -1986 0c-97.14,0 -174.49,30.58 -232.05,91.74 -57.58,61.17 -86.36,156.5 -86.36,286.03 0,104.34 20.69,190.68 62.07,259.05 41.36,68.36 130.42,124.12 267.13,167.3l1381.57 437.12c284.24,89.95 486.61,206.89 607.13,350.79 120.52,143.92 180.8,359.79 180.8,647.61 0,295.02 -65.66,530.69 -196.99,706.98 -131.32,176.29 -335.5,264.44 -612.52,264.44l-2374.58 0zm3669.79 0l0 -3211.06c0,-377.77 183.5,-566.66 550.47,-566.66l1878.08 0c194.28,0 357.07,31.48 488.4,94.45 131.32,62.96 230.26,154.7 296.82,275.22 66.56,120.53 112.43,246.45 137.62,377.78 25.17,131.32 37.77,286.93 37.77,466.81 0,179.9 -12.6,336.4 -37.77,469.51 -25.19,133.14 -71.06,259.95 -137.62,380.48 -66.56,120.54 -165.5,213.17 -296.82,277.94 -131.33,64.76 -294.12,97.14 -488.4,97.14l-1716.18 0 0 1338.39 -712.37 0zm712.37 -1905.06l1365.39 0c230.25,0 384.06,-51.26 461.41,-153.8 77.36,-102.54 116.03,-270.73 116.03,-504.6 0,-233.85 -38.67,-400.25 -116.03,-499.2 -77.35,-98.94 -231.16,-148.4 -461.41,-148.4l-1095.54 0c-107.95,0 -179.9,17.98 -215.88,53.96 -35.97,35.99 -53.97,107.94 -53.97,215.87l0 1036.17zm9174.48 1905.06l-712.37 0 0 -3211.06 -1473.32 0 0 -566.66 3664.39 0 0 566.66 -1478.7 0 0 3211.06z" />
    <path class="fil1" d="M12214.92 11330.98c1.21,6.06 3.19,11.14 5.11,16.86 1.82,7.05 3.58,14.53 6.28,21.3 2.89,6.43 6.59,12.48 9.96,18.32 2.81,5.63 5.08,11.55 8.91,16.56 6.67,10.26 14.4,19.37 22.81,28.19 0.93,1.02 1.47,2.02 1.89,3.03l808.05 812.68c79.18,79.1 206.82,79.1 285.9,0 78.75,-79.67 78.75,-208.15 0,-287.7l-748.84 -752.97 0 -817.42c0,-112.25 -90.57,-203.18 -202.02,-203.18 -111.41,0 -202,90.93 -202,203.18l0 901.43c0,13.45 1.42,26.6 3.95,39.72z" />
    <path class="fil1" d="M12412.97 9518.02c366.99,0 667.41,28.79 901.26,86.35 233.85,57.57 431.74,160.11 593.64,307.62 161.9,147.51 277.04,344.5 345.39,590.94 68.36,246.45 102.54,562.16 102.54,947.13 0,384.97 -34.18,700.68 -102.54,947.13 -68.35,246.45 -183.49,443.43 -345.39,590.94 -161.9,147.51 -359.79,250.06 -593.64,307.62 -233.85,57.56 -534.27,86.34 -901.26,86.34 -363.38,0 -662,-28.78 -895.86,-86.34 -233.86,-57.56 -431.74,-160.11 -593.64,-307.62 -161.9,-147.51 -277.04,-344.49 -345.39,-590.94 -68.36,-246.45 -102.54,-562.16 -102.54,-947.13 0,-384.97 34.18,-700.68 102.54,-947.13 68.35,-246.44 183.49,-443.43 345.39,-590.94 161.9,-147.51 359.78,-250.05 593.64,-307.62 233.86,-57.56 532.48,-86.35 895.86,-86.35zm-952.53 847.3c-167.3,187.07 -250.94,548.66 -250.94,1084.74 0,536.07 83.64,897.65 250.94,1084.74 167.3,187.1 484.81,280.63 952.53,280.63 467.72,0 786.12,-93.53 955.23,-280.63 169.1,-187.09 253.64,-548.67 253.64,-1084.74 0,-536.08 -84.54,-897.67 -253.64,-1084.74 -169.11,-187.09 -487.51,-280.65 -955.23,-280.65 -467.72,0 -785.23,93.56 -952.53,280.65z" />
  </g>
</svg>